# xmcd
#
# Track frame offsets:
#	150
#	21105
#	42510
#	68605
#
# Disc length: 1190 seconds
#
# Revision: 1
# Processed by: cddbd v1.5.2PL0 Copyright (c) Steve Scherf et al.
# Submitted via: SynApp - FreeCDDB Version: 2.4
#
DISCID=2c04a404
DTITLE=Simply Red - Remembering the first time
DYEAR=2007
DGENRE=Other
TTITLE0=Remembering the first time (Radio disco mix)
TTITLE1=Remembering the first time (Album version)
TTITLE2=Enough (Live)
TTITLE3=A new flame (Live)
EXTD=
EXTT0=
EXTT1=
EXTT2=
EXTT3=
PLAYORDER=
